<?xml version="1.0" encoding="utf-8"?>
<!-- Generator: Adobe Illustrator 27.0.0, SVG Export Plug-In . SVG Version: 6.00 Build 0)  -->
<svg version="1.1"
	 id="Layer_1" xmlns:inkscape="http://www.inkscape.org/namespaces/inkscape" xmlns:cc="http://creativecommons.org/ns#" xmlns:rdf="http://www.w3.org/1999/02/22-rdf-syntax-ns#" xmlns:sodipodi="http://sodipodi.sourceforge.net/DTD/sodipodi-0.dtd" xmlns:dc="http://purl.org/dc/elements/1.1/" xmlns:svg="http://www.w3.org/2000/svg"
	 xmlns="http://www.w3.org/2000/svg" xmlns:xlink="http://www.w3.org/1999/xlink" x="0px" y="0px" viewBox="0 0 100 125"
	 style="enable-background:new 0 0 100 125;" xml:space="preserve">
<style type="text/css">
	.st0{fill:#FF0000;}
</style>
<g transform="translate(0,-952.36218)">
	<path class="st0" d="M43.7,1021c0-0.4,0.3-0.7,0.7-0.7c0.2,0,0.4,0.1,0.5,0.2l6.3,6.9v-26.8v-0.1c0-0.4,0.4-0.7,0.7-0.6
		c0.4,0,0.7,0.4,0.6,0.7v26.8l6.3-6.9c0.3-0.3,0.7-0.3,1-0.1s0.3,0.7,0.1,1c0,0,0,0,0,0l-7.5,8.2c-0.3,0.3-0.7,0.3-1,0c0,0,0,0,0,0
		l-7.5-8.2C43.7,1021.3,43.6,1021.2,43.7,1021z"/>
</g>
</svg>
