<?xml version="1.0" encoding="utf-8"?>
<!-- Generator: Adobe Illustrator 27.0.0, SVG Export Plug-In . SVG Version: 6.00 Build 0)  -->
<svg version="1.1" id="Layer_1" xmlns="http://www.w3.org/2000/svg" xmlns:xlink="http://www.w3.org/1999/xlink" x="0px" y="0px"
	 viewBox="0 0 100 125" style="enable-background:new 0 0 100 125;" xml:space="preserve">
<path d="M73.9,47.8c-0.4-1.2-1.5-2.4-3.5-2.8c0.1-0.2,0.1-0.3,0.2-0.5c0.1-0.2,0.1-0.4,0.2-0.5c0.7-1.9,1.2-4,1.6-6.2
	c0.3-2.2,0.1-4.3-0.1-6.2c-0.1-0.8-0.3-1.7-0.5-2.7c0.1,0,0.1,0,0.2-0.1c0.3-0.2,0.5-0.6,0.5-0.9c-0.2-2.6-2.8-6-4.6-7.3
	c-1.7-1.3-3.5-2-5.1-2.5c-0.2-0.1-0.5-0.1-0.7-0.2c-0.3-0.1-0.7-0.2-0.8-0.2c0,0,0-0.1,0.1-0.4c0.1-0.4,0.4-0.9,0.6-1.3
	c0.5-0.8,1-1.8,1-3c0-0.3-0.1-0.6-0.4-0.8c-0.2-0.2-0.5-0.3-0.8-0.2c-1.5,0.3-2.8,1.5-3.7,2.8c-0.2-0.8-0.3-1.5-0.2-2.2
	c0-0.4-0.2-0.8-0.6-1c-0.4-0.2-0.9-0.1-1.1,0.3c-0.9,1-1.1,2.1-1.1,3.2c-6.5-3.2-17.7,1.3-22.7,4.8c-3.4,2.4-6.7,7.5-6.3,11.7
	c0,0.3,0.2,0.6,0.5,0.8c0,0.3,0,0.6,0,0.9l0,0.4c0,0.4,0.3,0.8,0.7,1c0.1,0,0.1,0,0.2,0c0,0.6,0,1.3,0.1,2.1
	c0.2,2.9,1.3,5.6,2.4,8.2c-2,0.4-3.2,1.6-3.6,2.9c-0.5,1.6,0,4,2.9,5.8c1.4,0.9,2.8,0.7,3.6,0.6c0.1,0,0.2,0,0.3,0
	c2.3,3.2,4.2,4.5,6.1,5.6c2.1,1.2,4.4,1.8,6.1,2.1h-4.8c-1,0-2,0.4-2.7,1.1c-0.7,0.7-1.1,1.7-1.1,2.7c0,0.6,0.1,1.1,0.4,1.6
	c-1.5,1.2-2.6,2.6-3.8,4.3c-1.5,2.2-2,6-2.2,8.9c-0.1,2.5,0,5.3,0.2,6.9c0.1,0.9,0.8,1.1,2.6,1.1c0.6,0,1.3,0,2.1,0
	c1.1,0,2.4-0.1,3.7-0.1l2.2,0c2.7,0,6.4,0,8.1,0c0,0,0,0,0,0c0,0,0,0,0,0c0.1,0,0.2,0,0.2,0l3.2,0l2.3,0c1,0,2.2,0,4.5,0
	c0.9,0,1.8,0,2.6,0c4.7,0,5.8,0.1,6-1.2c0.2-1.4,0.2-3.6,0-6.7c-0.2-2.8-0.7-6.7-2.2-8.9c-1.2-1.7-2.2-3.1-3.7-4.3
	c0.2-0.5,0.4-1.1,0.4-1.6c0-1-0.4-2-1.1-2.7c-0.7-0.7-1.7-1.1-2.7-1.1H55c1.9-0.3,4.4-0.9,6.5-2.1c1.8-1,3.2-2.2,5.5-5.6
	c0.1,0,0.2,0,0.3,0c0.8,0.1,2.3,0.3,3.6-0.6C74,51.8,74.4,49.4,73.9,47.8z M49,86.4c-1.9,0-4.9,0-7.2,0l-0.8,0v-4.1h8V86.4z
	 M59.1,86.4c-1.5,0-2.5,0-3.3,0l-2.3,0l-2.5,0v-4.1h8.1V86.4z M70,51.9c-0.8,0.5-1.6,0.4-2.3,0.3c-0.7-0.1-1.5-0.2-2,0.5
	c-2.3,3.2-3.5,4.3-5.1,5.2c-3.4,2-8.5,2.2-8.5,2.2c-0.1,0-0.1,0-0.2,0c-0.1,0-0.1,0-0.2,0c-0.1,0-0.1,0.1-0.1,0.1
	c-0.1,0-0.1,0.1-0.2,0.1c0,0-0.1,0.1-0.1,0.1c0,0.1-0.1,0.1-0.1,0.2c0,0.1,0,0.1,0,0.2c0,0.1,0,0.1,0,0.2v1.7v3.8v0.5h-2.2v-0.4
	c0,0,0,0,0,0v-5.5c0-0.1,0-0.1,0-0.2c0-0.1,0-0.1,0-0.2c0-0.1-0.1-0.1-0.1-0.2c0-0.1-0.1-0.1-0.1-0.1c0,0-0.1-0.1-0.2-0.1
	c0,0-0.1-0.1-0.1-0.1c-0.1,0-0.1,0-0.2,0c-0.1,0-0.1,0-0.2,0c0,0-4.3-0.2-7.8-2.1c-1.8-1-3.4-2.1-5.6-5.3c-0.5-0.7-1.3-0.6-2-0.5
	c-0.7,0.1-1.6,0.2-2.3-0.3c-1.6-1-2.4-2.4-2-3.5c0.3-0.9,1.2-1.5,2.5-1.6c0.1,0.2,0.2,0.5,0.3,0.7l0.2,0.5c0.2,0.3,0.5,0.6,0.9,0.6
	c0,0,0,0,0.1,0c0.4,0,0.8-0.3,0.9-0.7c0.5-1.5,0.6-2.9,0.8-4.4c0-0.3,0.1-0.6,0.1-1c0.2-1.4,0.5-2.9,0.9-4.4l0.2-0.7
	c0-0.1,0-0.2,0.1-0.3c0,0,0.1,0,0.1,0c0.6-0.3,1.1-0.6,1.7-0.9c1.2-0.6,2.5-1.3,3.7-2.4c0.2,0.4,0.6,0.7,1,0.6c0,0,0,0,0,0
	c8.1-0.3,13.2-3.2,15.4-5.7c0.2-0.2,0.4-0.5,0.5-0.7l0.5,1.5c0,0,0,0.1,0.1,0.1c0.6,1.2,2.9,5.2,5.3,6.1c0.3,0.1,0.7,0.1,1-0.1
	c0,0,0.1,0,0.1-0.1c0,0.2,0.1,0.4,0.1,0.6c0.1,0.4,0.1,0.8,0.2,1c0,0.1,1.7,9.7,2.6,10.2c0.3,0.2,0.6,0.2,0.9,0.1
	c0.4-0.2,0.8-0.4,1.1-0.7c1.4,0.1,2.4,0.7,2.7,1.6C72.4,49.5,71.6,50.9,70,51.9z"/>
<path d="M29.7,62.8c0.5,0.1,1.1,0.2,1.6,0.3l5.7,0.6c0.3,0,0.5,0.2,0.7,0.4c0.1,0.1,0.1,0.2,0.1,0.3c0.1,0.4,0,0.8-0.3,1l-6.7,6.5
	c-0.7,0.7-1.2,1.6-1.4,2.6l-0.2,1.3l7.9-0.7c0.3,0,0.6,0.1,0.8,0.3c0.2,0.2,0.3,0.5,0.3,0.8l-0.7,4.4c-0.1,0.4-0.4,0.8-0.9,0.8
	l-2.1,0.2c0.6,1.4,1,3.9-0.5,7l4.9,2.5c0.2,0.1,0.4,0.3,0.5,0.6c0.1,0.2,0.1,0.5-0.1,0.8l-2.2,4.2c-0.1,0.2-0.3,0.4-0.6,0.5
	c-0.3,0.1-0.5,0-0.8-0.1l-9.6-5.5c-0.2-0.1-0.4,0-0.5,0c-0.1,0.1-0.2,0.2-0.3,0.4l-1.8,11.3c0,0.3-0.2,0.5-0.4,0.7s-0.5,0.2-0.7,0.2
	l-0.1,0l-1.6,10.1c-0.1,0.5-0.6,0.9-1.1,0.8l-4.4-0.7c-0.3-0.1-0.5-0.2-0.7-0.4s-0.2-0.5-0.2-0.7l1.6-10.1l-0.1,0
	c-0.5-0.1-0.9-0.6-0.8-1.1l0.2-1.5l-2.1-0.3c-0.5-0.1-0.9-0.6-0.8-1.1s0.6-0.9,1.1-0.8l2.1,0.3l0.9-5.5l-3.4-0.6
	c-0.5-0.1-0.9-0.6-0.8-1.1l0.9-5.3c0.4-2.6,2.2-4.6,4.7-5.4l0.8-0.2l0.5-3.3c0.2-1.5,1.6-2.5,3.1-2.2c0.2,0,0.4,0,0.5-0.1
	c0.1-0.1,0.3-0.3,0.3-0.4l1.9-11.6c0-0.3,0.2-0.5,0.4-0.7c0.2-0.2,0.5-0.2,0.8-0.1L29.7,62.8z M32.6,82l-1.8,0.2l1,0.9
	c0,0.1,0.1,0.1,0.1,0.2c0.3,0.4,0.2,0.9-0.1,1.3c-0.4,0.4-1,0.4-1.4,0.1l-0.8-0.7l0.1,2.7l2.6,1.3C33.8,84.8,33,82.7,32.6,82z
	 M16.5,112.6L19,113l1.5-9.1l-2.5-0.4L16.5,112.6z M15.1,86.3l-0.7,4.3l2.5,0.4l1.4-8.5C16.6,83.2,15.4,84.6,15.1,86.3z M25,74.6
	c-0.1,0.7-0.5,1.3-1.1,1.8c-0.6,0.4-1.3,0.6-2,0.5c-0.2,0-0.4,0-0.5,0.1s-0.3,0.3-0.3,0.4l-0.6,3.9l0,0l-1.8,11.1l0,0l-1.5,9l0.1,0
	l0,0l0,0l4.6,0.7l1.7-10.3c0.1-0.8,0.6-1.4,1.3-1.8c0.7-0.4,1.5-0.4,2.3,0l8.8,5l1.2-2.4l-8.9-4.5c-0.3-0.2-0.5-0.5-0.5-0.9
	l-0.2-5.7c0-0.1,0-0.3,0.1-0.4c0,0,0,0,0-0.1c0-0.1,0.1-0.2,0.2-0.3c0,0,0,0,0,0c0,0,0.1,0,0.1-0.1c0.1-0.1,0.1-0.1,0.2-0.1
	c0.1,0,0.1,0,0.2-0.1c0.1,0,0.1,0,0.2,0l7.4-0.9l0.4-2.4l-7.9,0.7c-0.3,0-0.6-0.1-0.8-0.3c-0.2-0.2-0.3-0.5-0.3-0.8l0.4-2.6
	c0.2-1.4,0.9-2.8,2-3.8l5.2-5l-3.5-0.3c-0.6-0.1-1.3-0.2-1.9-0.3l-2.6-0.7L25,74.6z"/>
</svg>
