<?xml version="1.0" encoding="utf-8"?>
<!-- Generator: Adobe Illustrator 27.0.0, SVG Export Plug-In . SVG Version: 6.00 Build 0)  -->
<svg version="1.1" id="Layer_1" xmlns="http://www.w3.org/2000/svg" xmlns:xlink="http://www.w3.org/1999/xlink" x="0px" y="0px"
	 viewBox="0 0 100 125" style="enable-background:new 0 0 100 125;" xml:space="preserve">
<g>
	<path d="M43.8,38.9c0,4.4,1.3,7.6,1.3,13.5v1.1L37.5,55l0.2-3.4c0-0.7-0.5-1.3-1.3-1.3c-0.7,0-1.2,0.6-1.2,1.3l0.1,3.9L6.1,60.9
		c-2,0.6-0.7,5.1-0.2,5.1l29.5-2.3l0.1,4.9L34.7,69c-0.2,0.2,0,0.3,0.4,0.3h3c0.2,0,0.4-0.1,0.2-0.3l-0.7-0.5h-0.1l0.1-5l6.8-0.5
		l0.7,2c0.1,0.7,0.4,1.3,1.1,1.3h0.3l0.7,15.4L34,84.9c-0.5,0.1-0.7,0.5-0.7,0.9v2.7c0,0.6,0.6,1.1,1.1,1l15.7-1.6l15.6,1.5
		c0.7,0.1,1.1-0.4,1.1-0.9l0.1-2.7c0-0.4-0.4-0.8-0.7-0.9l-13-3.2l0.7-15.5H54c0.6,0,1-0.5,1.1-1.3l0.5-2l7.1,0.6l0.1,5l-0.1,0.1
		L62,69c-0.2,0.2,0,0.3,0.2,0.3h3c0.3,0,0.6-0.1,0.3-0.3l-0.7-0.5l0.1-4.9l29.2,2.3c0.6,0,1.9-4.5-0.1-5l-29.1-5.5l0.1-3.9
		c0-0.7-0.6-1.3-1.2-1.3c-0.7,0-1.4,0.6-1.4,1.3l-0.1,3.4l-8.1-1.5v-1.1c1-5.9,1.8-9.1,1.8-13.5c0-7.3-2.1-13-6.1-13
		C45.9,25.9,43.8,31.6,43.8,38.9z M46.4,61.5c-0.6,0.3-0.6-0.6,0-0.7c2.3-0.9,4.5-0.8,6.6,0c0.6,0.1,0.6,0.9,0,0.7
		C50.9,60.8,48.8,60.7,46.4,61.5z M53.6,29.8c1.5,5.4,1.5,11,0,16.4c-0.1,0.4-0.7,0.4-0.7,0c1.5-5.4,1.5-10.9,0-16.4
		C52.8,29.1,53.3,29,53.6,29.8z"/>
</g>
</svg>
