<svg xmlns="http://www.w3.org/2000/svg" viewBox="0 0 64 80" x="0px" y="0px"><g><path d="M61,35H57a1,1,0,0,0-1,1v1.8l-5-4.371V26a1,1,0,0,0-1-1H46a1,1,0,0,0-1,1v2.175l-3-2.628V23a1,1,0,0,0-.293-.707L38,18.586V15a1,1,0,0,0-.077-.385l-5-12a1,1,0,0,0-1.846,0l-5,12A1,1,0,0,0,26,15v3.586l-3.707,3.707A1,1,0,0,0,22,23v2.547l-3,2.628V26a1,1,0,0,0-1-1H14a1,1,0,0,0-1,1v7.426L8,37.8V36a1,1,0,0,0-1-1H3a1,1,0,0,0-1,1V48a1,1,0,0,0,1,1H7a1.843,1.843,0,0,0,.447-.1L22,41.618V48a1,1,0,0,0,1,1h4v1.382l-9.447,4.723A1,1,0,0,0,17,56v5a1,1,0,0,0,1.287.958L27,59.344V61a1,1,0,0,0,1,1h8a1,1,0,0,0,1-1V59.344l8.713,2.614A1,1,0,0,0,47,61V56a1,1,0,0,0-.553-.9L37,50.382V49h4a1,1,0,0,0,1-1V41.618L56.553,48.9A1.843,1.843,0,0,0,57,49h4a1,1,0,0,0,1-1V36A1,1,0,0,0,61,35ZM47,27h2V37H47ZM28,15.2l4-9.6,4,9.6V47H28ZM15,27h2V37H15ZM4,37H6V47H4Zm4,9.382V40.454l5-4.371V38a1,1,0,0,0,1,1h4a1,1,0,0,0,1-1V30.833l3-2.628V39.382ZM24,23.414l2-2V47H24ZM19,59.656V56.618l8-4v4.638Zm26-3.038v3.038l-8-2.4V52.618ZM35,60H33V56H31v4H29V49h6Zm5-13H38V21.414l2,2Zm2-18.8,3,2.628V38a1,1,0,0,0,1,1h4a1,1,0,0,0,1-1V36.083l5,4.371v5.928l-14-7ZM60,47H58V37h2Z"/><rect x="31" y="43" width="2" height="2"/><rect x="31" y="31" width="2" height="10"/><path d="M32,15.236l1.1,2.211,1.79-.894-2-4a1.042,1.042,0,0,0-1.79,0l-2,4,1.79.894Z"/></g></svg>