<?xml version="1.0" encoding="utf-8"?>
<!-- Generator: Adobe Illustrator 27.0.0, SVG Export Plug-In . SVG Version: 6.00 Build 0)  -->
<svg version="1.1"
	 id="Layer_1" xmlns:inkscape="http://www.inkscape.org/namespaces/inkscape" xmlns:cc="http://creativecommons.org/ns#" xmlns:rdf="http://www.w3.org/1999/02/22-rdf-syntax-ns#" xmlns:sodipodi="http://sodipodi.sourceforge.net/DTD/sodipodi-0.dtd" xmlns:dc="http://purl.org/dc/elements/1.1/" xmlns:svg="http://www.w3.org/2000/svg"
	 xmlns="http://www.w3.org/2000/svg" xmlns:xlink="http://www.w3.org/1999/xlink" x="0px" y="0px" viewBox="0 0 100 125"
	 style="enable-background:new 0 0 100 125;" xml:space="preserve">
<g transform="translate(0,-952.36218)">
	<path d="M49.6,952.4c-0.6,0.1-1.1,0.7-1.1,1.3v7.8c-0.4,0.3-0.7,0.7-0.9,1.1c-2,5.5-4.4,10.7-4.5,18.5c-3.2,8.7-4.8,17.3-5.6,26
		l-12.1,7.9v-3c0-0.7-0.7-1.3-1.4-1.3c-0.6,0.1-1.1,0.7-1.1,1.3v4.6l-19.6,12.9c-0.7,0.4-1.1,1.2-1.1,2.1v7.3c0,1.3,1.3,2.5,2.6,2.4
		l31.8-2.3l-0.1,3.7l-11.8,14.2c-0.4,0.4-0.6,1-0.6,1.6v8.5c0,1,0.7,1.9,1.6,2.3c0.9,0.3,2,0.1,2.7-0.7c3.5-4.2,7.1-7.9,10.2-11.7
		l0.8,0.8c0.5,0.5,1.1,0.7,1.8,0.7h3.7c0.4,0,0.7-0.1,1.1-0.3l1.9-1h3.8l1.9,1c0.3,0.2,0.7,0.3,1.1,0.3h3.7c0.6,0,1.3-0.3,1.7-0.7
		l0.9-0.9c3,4.1,6.8,7.9,10.2,11.7c0.6,0.7,1.8,1,2.7,0.7c0.9-0.3,1.6-1.3,1.6-2.3v-8.5c0-0.6-0.2-1.1-0.6-1.6L63,1042.7L63,1039
		l31.7,2.3c1.3,0.1,2.6-1.1,2.6-2.4v-7.3c0-0.8-0.4-1.6-1.1-2.1l-19.6-12.9v-4.6c0-0.7-0.7-1.3-1.4-1.3c-0.6,0.1-1.1,0.7-1.1,1.3v3
		l-11.9-7.8c-1-8.9-2.7-17.6-5.9-26.3c-0.1-7.8-2.7-12.9-4.1-18.1c-0.2-0.7-0.7-1.3-1.3-1.6v-7.6C51,952.9,50.3,952.3,49.6,952.4
		L49.6,952.4z M49.8,971.1c0.7,2.4,1.3,4.8,1.6,7.6c-1.1-0.1-2.2,0-3.2,0C48.4,975.9,49,973.5,49.8,971.1L49.8,971.1z M52.2,983.8
		c-0.1,4.5-0.2,9.1-0.2,13.7h-4.3l-0.2-13.7C49.1,983.4,50.4,983.5,52.2,983.8z M45.1,991.3l1,54.9h-4.6l0.8-37
		C42.5,1003.3,43.8,996.5,45.1,991.3L45.1,991.3z M54.5,991.5c1.5,5.9,2.4,11.8,3.1,17.9l0.6,36.8h-4.6L54.5,991.5z M47.7,999.9h4.3
		l-0.9,52.4h-2.5L47.7,999.9z M37.3,1013.1l-0.3,14.8l-29.8,5.4v-0.5L37.3,1013.1z M62.6,1013.3l29.9,19.6v0.6l-29.6-5.4
		L62.6,1013.3z M36.9,1030.5l-0.1,3.6l-11.4,0.8v-2.3L36.9,1030.5z M62.8,1030.5l11.3,2.1v2.4l-11.3-0.8L62.8,1030.5z M23,1033v2.1
		l-15.8,1.1v-0.3L23,1033z M76.6,1033l15.8,2.9v0.3l-15.8-1.2V1033z M41.4,1048.6h4.7l0.1,4l-1.9,0.9h-2l-1-1L41.4,1048.6z
		 M53.5,1048.6h4.7l0.1,3.8l-1.1,1.1h-2l-1.8-0.9L53.5,1048.6z M34,1053.4v1.6l-4.9,5.5v-1.2L34,1053.4z M65.6,1053.4l4.9,5.9v1.2
		l-4.9-5.5V1053.4z"/>
</g>
</svg>
