<?xml version="1.0" encoding="utf-8"?>
<!-- Generator: Adobe Illustrator 27.0.0, SVG Export Plug-In . SVG Version: 6.00 Build 0)  -->
<svg version="1.1" id="Layer_1" xmlns="http://www.w3.org/2000/svg" xmlns:xlink="http://www.w3.org/1999/xlink" x="0px" y="0px"
	 viewBox="0 0 512 640" style="enable-background:new 0 0 512 640;" xml:space="preserve">
<style type="text/css">
	.st0{stroke:#000000;stroke-width:2;stroke-miterlimit:10;}
</style>
<g>
	<path d="M496.8,336.7l-71.6-74.7c-0.5-0.6-1.3-0.9-2.1-0.9h-85.6c-1.6,0-2.9,1.3-2.9,2.9v44.1h-25.9v-84.5l10.7-2.5
		c24.6-5.8,44.4-22.2,51.6-42.7c0.4-1.1,0.1-2.3-0.7-3.1c-15.6-15.2-40.6-21-65.2-15.3l-50.7,11.9h-0.2l-0.2,0.1L66.6,216.1
		l-21.1-16.7c-0.7-0.6-1.6-0.8-2.5-0.6l-32.5,7.7c-1.6,0.4-2.6,1.9-2.2,3.5c0.1,0.6,0.5,1.2,1,1.6l21.4,17l5.6,23.8l-14.2,3.4
		c-1.6,0.4-2.5,2-2.2,3.5c0.3,1.3,1.5,2.2,2.8,2.2c0.2,0,0.5,0,0.7-0.1l14.2-3.3l5.6,23.8l-11.6,24.7c-0.7,1.5,0,3.2,1.4,3.9
		c0.4,0.2,0.8,0.3,1.2,0.3c0.2,0,0.5,0,0.7-0.1l32.6-7.7c0.9-0.2,1.6-0.8,2-1.6l11.4-24.4l5.9-1.4v32.3h-10h-0.2c-0.1,0-0.2,0-0.4,0
		c-0.1,0-0.2,0-0.3,0.1c-0.1,0-0.2,0-0.3,0.1l-0.2,0.1c-0.1,0-0.2,0.1-0.3,0.1l-0.2,0.2l-0.2,0.2l-0.2,0.2c-0.1,0.1-0.1,0.2-0.2,0.2
		c-0.1,0.1-0.1,0.1-0.1,0.2l-0.1,0.3c0,0.1-0.1,0.2-0.1,0.3l-0.1,0.2l-11.3,50.3l-14.5,27v0.1c0,0.1-0.1,0.2-0.1,0.3
		c0,0.1-0.1,0.2-0.1,0.3c0,0.1,0,0.2,0,0.3c0,0.1,0,0.2,0,0.3c0,0,0,0.1,0,0.1s0,0.1,0,0.1c0,0.1,0,0.2,0,0.3c0,0.1,0,0.2,0,0.3
		c0,0.1,0,0.2,0.1,0.3c0,0.1,0.1,0.2,0.1,0.3c0,0.1,0.1,0.2,0.1,0.2c0,0.1,0.1,0.2,0.2,0.2l0.2,0.2l0.2,0.2l0.2,0.2l0.3,0.2l0.1,0.1
		h0.1c0.2,0.1,0.3,0.1,0.5,0.2l0.2,0.1c0.2,0,0.4,0.1,0.6,0.1h18c0.2,0,0.5,0,0.7-0.1l0.2-0.1c0.2-0.1,0.3-0.1,0.5-0.2l0.2-0.1
		c0.2-0.1,0.4-0.3,0.6-0.4c0,0,0,0,0-0.1c0.1-0.2,0.3-0.3,0.4-0.5c0,0,0,0,0-0.1l24.5-45h119.4l23,44.9c0,0,0,0,0.1,0.1
		c0.1,0.2,0.2,0.4,0.4,0.5c0,0,0,0.1,0.1,0.1c0.2,0.2,0.4,0.3,0.6,0.4l0.2,0.1c0.2,0.1,0.3,0.2,0.5,0.2l0.2,0.1
		c0.2,0.1,0.5,0.1,0.7,0.1h15.1v7.9c0,1.6,1.3,2.9,2.9,2.9h47.8v21.4c0,1.6,1.3,2.9,2.9,2.9c0,0,0,0,0,0h33.7c1.6,0,2.9-1.3,2.9-2.9
		v-31.5H385c2,20.9,20.5,36.2,41.4,34.2c18.1-1.7,32.5-16.1,34.2-34.2h11c0.9,0,1.8-0.4,2.4-1.2l23.2-32.5c0.4-0.5,0.6-1.1,0.6-1.7
		v-18.6C497.6,337.9,497.4,337.2,496.8,336.7z M474,321.3h-71.5v-54.4h19.4L474,321.3z M340.5,266.9h31.8v62.4h-31.8V266.9z
		 M298.4,220l-11.7-49.6l16.8-4l11.6,49.6L298.4,220z M171.3,249.9c-0.3-7.3,4.6-13.8,11.8-15.5l66.5-15.6
		c7.2-1.7,14.5,1.9,17.6,8.6L171.3,249.9z M272.8,226c-3.8-9.8-14.3-15.3-24.6-12.9l-66.4,15.6c-10.3,2.4-17.2,12.1-16.2,22.6
		l-32,7.5l-11.7-49.6l29.1-6.8c3.8,9.9,14.3,15.4,24.6,12.9l66.5-15.6c10.3-2.4,17.2-12,16.2-22.6l22.9-5.4l11.7,49.6L272.8,226z
		 M252.4,178.5c0.3,7.3-4.7,13.8-11.8,15.5l-66.5,15.6c-7.1,1.7-14.5-1.9-17.5-8.6L252.4,178.5z M364.8,178.2
		c-6.7,17-23.2,30.7-43.9,36.4l-11.6-49.4C330.3,161.1,351.2,165.9,364.8,178.2L364.8,178.2z M43,204.9l16.3,12.9l-15.8,3.7
		l-9.4,2.2l-16.3-12.9L43,204.9z M75.3,246.3c-0.4-1.6-1.9-2.6-3.5-2.2l-29.7,7l-5.1-21.9l29.7-7l0,0l49.5-11.6l11.7,49.6l-38.6,9.1
		l0,0l-10.9,2.6l0,0L51.4,278l-2.9,0.7l-5.2-21.9l29.7-7C74.6,249.4,75.6,247.9,75.3,246.3z M64.8,297.7l-25.3,5.9l8.8-18.9
		l25.3-5.9L64.8,297.7z M92.7,274.4l35.6-8.4v42.1H92.7L92.7,274.4z M79.2,314h124.7c1.6,0,2.9-1.3,2.9-2.9s-1.3-2.9-2.9-2.9h-69.6
		v-43.5l35.3-8.3l0,0l127.4-30l0,0l5.9-1.4v83.1h-50.2c-1.6,0-2.9,1.3-2.9,2.9s1.3,2.9,2.9,2.9l0,0h82v37.1h-75.8
		c-1.6,0-2.9,1.3-2.9,2.9v23.1l-28.5-54.2c0,0-0.1-0.1-0.1-0.1c0-0.1-0.1-0.2-0.2-0.3l-0.2-0.2l-0.2-0.2l-0.2-0.2l-0.2-0.2l-0.2-0.1
		l-0.3-0.1l-0.3-0.1l-0.3-0.1h-0.3H85.5h-0.3h-0.3l-0.3,0.1c-0.1,0-0.2,0.1-0.3,0.1l-0.2,0.1l-0.2,0.2l-0.2,0.2l-0.2,0.2l-0.2,0.2
		l-0.2,0.3l-0.1,0.1l-10.1,18.7L79.2,314z M242.6,386.1l-23-44.9l-0.1-0.1c-0.1-0.1-0.1-0.2-0.2-0.3l-0.2-0.2l-0.2-0.2l-0.2-0.2
		l-0.2-0.2c-0.1-0.1-0.2-0.1-0.3-0.1c-0.1,0-0.2-0.1-0.2-0.1l-0.3-0.1l-0.3-0.1h-0.3h-0.2h-123h-0.3h-0.3l-0.3,0.1
		c-0.1,0-0.2,0.1-0.3,0.1l-0.2,0.1l-0.2,0.2l-0.2,0.2l-0.2,0.2l-0.2,0.2l-0.2,0.3l-0.1,0.1l-24.5,45.1H55.6l31.8-58.9H223l30.9,58.9
		H242.6z M261.7,357h19.4v40h-19.5L261.7,357z M287.1,396.9v-40h19.4v40H287.1z M340.4,421.1h-27.9V357h27.9L340.4,421.1z
		 M422.8,421.1c-17.7,0-32.1-14.4-32.1-32.1c0-1,0-2,0.1-3c2-17.6,17.8-30.3,35.4-28.3c16.2,1.8,28.5,15.6,28.5,31.9
		c0,0.1,0,0.3,0,0.4C454.2,407.4,440,421.1,422.8,421.1L422.8,421.1z M491.9,356.3l-21.8,30.5h-9.4c-1.3-20.9-19.3-36.8-40.2-35.5
		c-18.7,1.2-33.7,15.7-35.4,34.4c0,0.4-0.1,0.8-0.1,1.2h-38.7V354c0-1.6-1.3-2.9-2.9-2.9h-2.8v-15.9h34.8c1.6,0,2.9-1.3,2.9-2.9
		c0,0,0,0,0,0v-65.3h18.5v57.3c0,1.6,1.3,2.9,2.9,2.9H477c0.7,0,1.4-0.3,1.9-0.7l12.9,13.4L491.9,356.3z"/>
	<path d="M422.7,375.1c-7.7,0-13.9,6.2-13.9,13.9c0,7.7,6.2,13.9,13.9,13.9c7.7,0,13.9-6.2,13.9-13.9l0,0
		C436.6,381.4,430.4,375.1,422.7,375.1z M422.7,397.1c-4.4,0-8-3.6-8-8c0-4.4,3.6-8,8-8s8,3.6,8,8l0,0
		C430.7,393.5,427.1,397.1,422.7,397.1L422.7,397.1z"/>
	<path d="M226.2,313.5c0.2,0.1,0.3,0.2,0.5,0.3c0.2,0.1,0.4,0.1,0.5,0.2c0.2,0,0.4,0.1,0.6,0.1c0.2,0,0.4,0,0.6-0.1
		c0.4-0.1,0.7-0.2,1.1-0.4c0.2-0.1,0.3-0.2,0.4-0.4c0.1-0.1,0.3-0.3,0.4-0.4c0.2-0.3,0.4-0.7,0.4-1.1c0.1-0.4,0.1-0.8,0-1.2
		c0-0.2-0.1-0.4-0.2-0.6c-0.1-0.2-0.2-0.3-0.3-0.5c-0.1-0.2-0.2-0.3-0.4-0.4c-0.1-0.1-0.3-0.3-0.4-0.4c-0.2-0.1-0.3-0.2-0.5-0.3
		c-0.2-0.1-0.4-0.1-0.6-0.2c-0.4-0.1-0.8-0.1-1.2,0c-0.2,0-0.4,0.1-0.5,0.2c-0.2,0.1-0.4,0.2-0.5,0.3c-0.3,0.2-0.6,0.5-0.8,0.8
		c-0.1,0.2-0.2,0.3-0.3,0.5c-0.1,0.2-0.1,0.4-0.2,0.6c0,0.2-0.1,0.4-0.1,0.6c0,0.8,0.3,1.5,0.9,2.1
		C225.9,313.2,226,313.4,226.2,313.5z"/>
	<path d="M189.7,351.1c-15.3,0-29.1,9.2-35,23.3c-8.1-19.3-30.3-28.5-49.7-20.4c-19.3,8.1-28.5,30.3-20.4,49.7s30.3,28.5,49.7,20.4
		c9.2-3.8,16.5-11.2,20.4-20.4c8.1,19.3,30.3,28.5,49.7,20.4c19.3-8.1,28.5-30.3,20.4-49.7C218.8,360.3,205,351.1,189.7,351.1z
		 M119.7,421.1c-17.7,0-32.1-14.4-32.1-32.1c0-17.7,14.4-32.1,32.1-32.1c17.7,0,32.1,14.4,32.1,32.1c0,0,0,0,0,0
		C151.7,406.7,137.4,421.1,119.7,421.1L119.7,421.1z M189.7,421.1c-17.7,0-32.1-14.4-32.1-32.1c0-17.7,14.4-32.1,32.1-32.1
		c17.7,0,32.1,14.4,32.1,32.1c0,0,0,0,0,0C221.8,406.8,207.4,421.1,189.7,421.1L189.7,421.1z"/>
	<path d="M189.7,375.1c-7.7,0-13.9,6.2-13.9,13.9c0,7.7,6.2,13.9,13.9,13.9c7.7,0,13.9-6.2,13.9-13.9l0,0
		C203.6,381.4,197.4,375.1,189.7,375.1z M189.7,397.1c-4.4,0-8-3.6-8-8c0-4.4,3.6-8,8-8c4.4,0,8,3.6,8,8l0,0
		C197.7,393.5,194.1,397.1,189.7,397.1L189.7,397.1z"/>
	<path d="M119.7,375.8c-7.7,0-13.9,6.2-13.9,13.9c0,7.7,6.2,13.9,13.9,13.9s13.9-6.2,13.9-13.9c0,0,0,0,0,0
		C133.6,382,127.4,375.8,119.7,375.8z M119.7,397.7c-4.4,0-8-3.6-8.1-8c0-4.4,3.6-8,8-8.1c4.4,0,8,3.6,8.1,8c0,0,0,0,0,0
		C127.7,394.1,124.1,397.7,119.7,397.7z"/>
</g>
<g>
	<path class="st0" d="M486.3,341.4l-71.6-74.7c-0.5-0.6-1.3-0.9-2.1-0.9H327c-1.6,0-2.9,1.3-2.9,2.9v44.1h-25.9v-84.5l10.7-2.5
		c24.6-5.8,44.4-22.2,51.6-42.7c0.4-1.1,0.1-2.3-0.7-3.1c-15.6-15.2-40.6-21-65.2-15.3l-50.7,11.9h-0.2l-0.2,0.1L56,220.9L35,204.1
		c-0.7-0.6-1.6-0.8-2.5-0.6l-32.5,7.7c-1.6,0.4-2.6,1.9-2.2,3.5c0.1,0.6,0.5,1.2,1,1.6l21.4,17l5.6,23.8l-14.2,3.4
		c-1.6,0.4-2.5,2-2.2,3.5c0.3,1.3,1.5,2.2,2.8,2.2c0.2,0,0.5,0,0.7-0.1l14.2-3.3l5.6,23.8l-11.6,24.7c-0.7,1.5,0,3.2,1.4,3.9
		c0.4,0.2,0.8,0.3,1.2,0.3c0.2,0,0.5,0,0.7-0.1l32.6-7.7c0.9-0.2,1.6-0.8,2-1.6l11.4-24.4l5.9-1.4v32.3h-10H66c-0.1,0-0.2,0-0.4,0
		c-0.1,0-0.2,0-0.3,0.1c-0.1,0-0.2,0-0.3,0.1l-0.2,0.1c-0.1,0-0.2,0.1-0.3,0.1l-0.2,0.2l-0.2,0.2l-0.2,0.2c-0.1,0.1-0.1,0.2-0.2,0.2
		c-0.1,0.1-0.1,0.1-0.1,0.2l-0.1,0.3c0,0.1-0.1,0.2-0.1,0.3l-0.1,0.2L52,365.4l-14.5,27v0.1c0,0.1-0.1,0.2-0.1,0.3
		c0,0.1-0.1,0.2-0.1,0.3c0,0.1,0,0.2,0,0.3c0,0.1,0,0.2,0,0.3c0,0,0,0.1,0,0.1c0,0,0,0.1,0,0.1c0,0.1,0,0.2,0,0.3c0,0.1,0,0.2,0,0.3
		c0,0.1,0,0.2,0.1,0.3c0,0.1,0.1,0.2,0.1,0.3c0,0.1,0.1,0.2,0.1,0.2c0,0.1,0.1,0.2,0.2,0.2l0.2,0.2l0.2,0.2l0.2,0.2l0.3,0.2l0.1,0.1
		h0.1c0.2,0.1,0.3,0.1,0.5,0.2l0.2,0.1c0.2,0,0.4,0.1,0.6,0.1h18c0.2,0,0.5,0,0.7-0.1l0.2-0.1c0.2-0.1,0.3-0.1,0.5-0.2l0.2-0.1
		c0.2-0.1,0.4-0.3,0.6-0.4c0,0,0,0,0-0.1c0.1-0.2,0.3-0.3,0.4-0.5c0,0,0,0,0-0.1l24.5-45h119.4l23,44.9c0,0,0,0,0.1,0.1
		c0.1,0.2,0.2,0.4,0.4,0.5c0,0,0,0.1,0.1,0.1c0.2,0.2,0.4,0.3,0.6,0.4l0.2,0.1c0.2,0.1,0.3,0.2,0.5,0.2l0.2,0.1
		c0.2,0.1,0.5,0.1,0.7,0.1h15.1v7.9c0,1.6,1.3,2.9,2.9,2.9H296v21.4c0,1.6,1.3,2.9,2.9,2.9c0,0,0,0,0,0h33.7c1.6,0,2.9-1.3,2.9-2.9
		v-31.5h38.8c2,20.9,20.5,36.2,41.4,34.2c18.1-1.7,32.5-16.1,34.2-34.2h11c0.9,0,1.8-0.4,2.4-1.2l23.2-32.5c0.4-0.5,0.6-1.1,0.6-1.7
		v-18.6C487.1,342.7,486.8,342,486.3,341.4z M463.4,326h-71.5v-54.4h19.4L463.4,326z M329.9,271.7h31.8V334h-31.8V271.7z
		 M287.9,224.7l-11.7-49.6l16.8-4l11.6,49.6L287.9,224.7z M160.7,254.6c-0.3-7.3,4.6-13.8,11.8-15.5l66.5-15.6
		c7.2-1.7,14.5,1.9,17.6,8.6L160.7,254.6z M262.2,230.7c-3.8-9.8-14.3-15.3-24.6-12.9l-66.4,15.6c-10.3,2.4-17.2,12.1-16.2,22.6
		l-32,7.5L111.2,214l29.1-6.8c3.8,9.9,14.3,15.4,24.6,12.9l66.5-15.6c10.3-2.4,17.2-12,16.2-22.6l22.9-5.4l11.7,49.6L262.2,230.7z
		 M241.8,183.2c0.3,7.3-4.7,13.8-11.8,15.5l-66.5,15.6c-7.1,1.7-14.5-1.9-17.5-8.6L241.8,183.2z M354.3,183
		c-6.7,17-23.2,30.7-43.9,36.4L298.8,170C319.8,165.8,340.6,170.7,354.3,183L354.3,183z M32.4,209.6l16.3,12.9l-15.8,3.7l-9.4,2.2
		L7.2,215.6L32.4,209.6z M64.7,251c-0.4-1.6-1.9-2.6-3.5-2.2l-29.7,7l-5.1-21.9l29.7-7l0,0l49.5-11.6l11.7,49.6l-38.6,9.1l0,0
		l-10.9,2.6l0,0l-26.8,6.3l-2.9,0.7l-5.2-21.9l29.7-7C64.1,254.2,65.1,252.6,64.7,251z M54.3,302.5L29,308.4l8.8-18.9l25.3-5.9
		L54.3,302.5z M82.2,279.1l35.6-8.4v42.1H82.1L82.2,279.1z M68.6,318.7h124.7c1.6,0,2.9-1.3,2.9-2.9s-1.3-2.9-2.9-2.9h-69.6v-43.5
		l35.3-8.3l0,0l127.4-30l0,0l5.9-1.4v83.1H242c-1.6,0-2.9,1.3-2.9,2.9s1.3,2.9,2.9,2.9l0,0h82v37.1h-75.8c-1.6,0-2.9,1.3-2.9,2.9
		v23.1l-28.5-54.2c0,0-0.1-0.1-0.1-0.1c0-0.1-0.1-0.2-0.2-0.3l-0.2-0.2l-0.2-0.2l-0.2-0.2l-0.2-0.2l-0.2-0.1l-0.3-0.1l-0.3-0.1
		l-0.3-0.1h-0.3H75h-0.3h-0.3l-0.3,0.1c-0.1,0-0.2,0.1-0.3,0.1l-0.2,0.1l-0.2,0.2l-0.2,0.2l-0.2,0.2l-0.2,0.2l-0.2,0.3l-0.1,0.1
		l-10.1,18.7L68.6,318.7z M232,390.9l-23-44.9l-0.1-0.1c-0.1-0.1-0.1-0.2-0.2-0.3l-0.2-0.2l-0.2-0.2l-0.2-0.2l-0.2-0.2
		c-0.1-0.1-0.2-0.1-0.3-0.1c-0.1,0-0.2-0.1-0.2-0.1l-0.3-0.1l-0.3-0.1h-0.3h-0.2h-123h-0.3h-0.3l-0.3,0.1c-0.1,0-0.2,0.1-0.3,0.1
		l-0.2,0.1l-0.2,0.2l-0.2,0.2l-0.2,0.2l-0.2,0.2l-0.2,0.3l-0.1,0.1l-24.5,45.1H45l31.8-58.9h135.6l30.9,58.9H232z M251.2,361.7h19.4
		v40h-19.5L251.2,361.7z M276.6,401.7v-40H296v40H276.6z M329.8,425.9h-27.9v-64.2h27.9L329.8,425.9z M412.2,425.9
		c-17.7,0-32.1-14.4-32.1-32.1c0-1,0-2,0.1-3c2-17.6,17.8-30.3,35.4-28.3c16.2,1.8,28.5,15.6,28.5,31.9c0,0.1,0,0.3,0,0.4
		C443.6,412.2,429.4,425.9,412.2,425.9L412.2,425.9z M481.3,361.1l-21.8,30.5h-9.4c-1.3-20.9-19.3-36.8-40.2-35.5
		c-18.7,1.2-33.7,15.7-35.4,34.4c0,0.4-0.1,0.8-0.1,1.2h-38.7v-32.8c0-1.6-1.3-2.9-2.9-2.9h-2.8v-15.9h34.8c1.6,0,2.9-1.3,2.9-2.9
		c0,0,0,0,0,0v-65.3h18.5V329c0,1.6,1.3,2.9,2.9,2.9h77.5c0.7,0,1.4-0.3,1.9-0.7l12.9,13.4L481.3,361.1z"/>
	<path class="st0" d="M412.2,379.9c-7.7,0-13.9,6.2-13.9,13.9s6.2,13.9,13.9,13.9c7.7,0,13.9-6.2,13.9-13.9l0,0
		C426.1,386.1,419.8,379.9,412.2,379.9z M412.2,401.8c-4.4,0-8-3.6-8-8s3.6-8,8-8c4.4,0,8,3.6,8,8l0,0
		C420.2,398.2,416.6,401.8,412.2,401.8L412.2,401.8z"/>
	<path class="st0" d="M215.6,318.2c0.2,0.1,0.3,0.2,0.5,0.3c0.2,0.1,0.4,0.1,0.5,0.2c0.2,0,0.4,0.1,0.6,0.1c0.2,0,0.4,0,0.6-0.1
		c0.4-0.1,0.7-0.2,1.1-0.4c0.2-0.1,0.3-0.2,0.4-0.4c0.1-0.1,0.3-0.3,0.4-0.4c0.2-0.3,0.4-0.7,0.4-1.1c0.1-0.4,0.1-0.8,0-1.2
		c0-0.2-0.1-0.4-0.2-0.6c-0.1-0.2-0.2-0.3-0.3-0.5c-0.1-0.2-0.2-0.3-0.4-0.4c-0.1-0.1-0.3-0.3-0.4-0.4c-0.2-0.1-0.3-0.2-0.5-0.3
		c-0.2-0.1-0.4-0.1-0.6-0.2c-0.4-0.1-0.8-0.1-1.2,0c-0.2,0-0.4,0.1-0.5,0.2c-0.2,0.1-0.4,0.2-0.5,0.3c-0.3,0.2-0.6,0.5-0.8,0.8
		c-0.1,0.2-0.2,0.3-0.3,0.5c-0.1,0.2-0.1,0.4-0.2,0.6c0,0.2-0.1,0.4-0.1,0.6c0,0.8,0.3,1.5,0.9,2.1
		C215.3,318,215.5,318.1,215.6,318.2z"/>
	<path class="st0" d="M179.2,355.8c-15.3,0-29.1,9.2-35,23.3c-8.1-19.3-30.3-28.5-49.7-20.4c-19.3,8.1-28.5,30.3-20.4,49.7
		c8.1,19.3,30.3,28.5,49.7,20.4c9.2-3.8,16.5-11.2,20.4-20.4c8.1,19.3,30.3,28.5,49.7,20.4c19.3-8.1,28.5-30.3,20.4-49.7
		C208.3,365,194.5,355.8,179.2,355.8z M109.1,425.9c-17.7,0-32.1-14.4-32.1-32.1c0-17.7,14.4-32.1,32.1-32.1
		c17.7,0,32.1,14.4,32.1,32.1c0,0,0,0,0,0C141.2,411.5,126.8,425.8,109.1,425.9L109.1,425.9z M179.2,425.9
		c-17.7,0-32.1-14.4-32.1-32.1c0-17.7,14.4-32.1,32.1-32.1c17.7,0,32.1,14.4,32.1,32.1c0,0,0,0,0,0
		C211.2,411.5,196.9,425.9,179.2,425.9L179.2,425.9z"/>
	<path class="st0" d="M179.2,379.9c-7.7,0-13.9,6.2-13.9,13.9c0,7.7,6.2,13.9,13.9,13.9s13.9-6.2,13.9-13.9l0,0
		C193.1,386.1,186.8,379.9,179.2,379.9z M179.2,401.8c-4.4,0-8-3.6-8-8c0-4.4,3.6-8,8-8c4.4,0,8,3.6,8,8l0,0
		C187.2,398.2,183.6,401.8,179.2,401.8L179.2,401.8z"/>
	<path class="st0" d="M109.1,380.5c-7.7,0-13.9,6.2-13.9,13.9c0,7.7,6.2,13.9,13.9,13.9c7.7,0,13.9-6.2,13.9-13.9c0,0,0,0,0,0
		C123,386.8,116.8,380.5,109.1,380.5z M109.1,402.5c-4.4,0-8-3.6-8.1-8c0-4.4,3.6-8,8-8.1c4.4,0,8,3.6,8.1,8c0,0,0,0,0,0
		C117.2,398.9,113.6,402.5,109.1,402.5z"/>
</g>
</svg>
