<?xml version="1.0" encoding="utf-8"?>
<!-- Generator: Adobe Illustrator 27.0.0, SVG Export Plug-In . SVG Version: 6.00 Build 0)  -->
<svg version="1.1" id="Layer_1" xmlns="http://www.w3.org/2000/svg" xmlns:xlink="http://www.w3.org/1999/xlink" x="0px" y="0px"
	 viewBox="0 0 169.1 316" style="enable-background:new 0 0 169.1 316;" xml:space="preserve">
<g>
	<path d="M153.1,154.2c0.4,4.2,3.9,7.3,8,7.3c0.2,0,0.5,0,0.7,0c4.4-0.4,7.7-4.2,7.3-8.6c-0.3-3.2-0.6-6.2-0.9-9.1
		c-5.5,2.4-12.2,2.8-15.8,2.8C152.7,149.1,152.9,151.6,153.1,154.2z"/>
	<path d="M150.3,80.2c-3.2-4.8-6.5-8.1-9.7-10.3c-4.5,6.8-6.9,11.2-7,20.4c0,1.2,0,2.4,0.1,3.8c0,0,0.1,0.1,0.2,0.2
		c0.2,0.2,0.7,0.4,1.2,0.7c0.4,0.2,0.9,0.5,1.4,0.7v-7.1c1.8,2.6,3.8,6.1,5.8,11.1c3.7,9.3,7.4,23.3,9.8,44c3.5,0,10.9-0.6,15.8-3
		C164.1,109,157.4,91,150.3,80.2z"/>
	<polygon points="119.6,65.8 99.3,65.8 109.3,79.8 	"/>
	<path d="M85.2,94.1c0.1-1.3,0.1-2.6,0.1-3.8c0-9.2-2.5-13.5-7-20.4C73.2,73.5,67.6,80,62.8,91.1c-1.4,3.3-2.8,6.9-4.1,11.1
		l-7.2-3.8l-15.9,41.2l-1.7-0.7l-1.1,2.9l-2-0.8l-8.3,21.6l4.1,1.6l-0.9,2.4l2.2,0.9l-1,2.6l-2.2-0.8L6.8,220.6l2.2,0.8l-9,23.3
		l3.6,1.4l9-23.3l2.4,0.9l21.2-49.9L34,173l1.1-2.9c1.2,0.2,3,0.4,5,0.8c3.9,0.7,16.5,10.8,16.5,10.8s7.1-4.8,6.1-7.1
		c-1-2.4-13.8-12-13.8-12l1.4-6.2c1,2.8,3.6,4.9,6.8,5.2c0.2,0,0.5,0,0.7,0c4.1,0,7.6-3.1,8-7.3c0.2-2.6,0.5-5.2,0.7-7.6
		c-3.5-0.1-10.3-0.5-15.8-2.8c-0.1,0.9-0.2,1.9-0.3,2.8c-2.1-0.1-3.6-0.3-3.8-1.1c-0.2-0.9,2-4.9,5.1-10c-0.2,1.7-0.4,3.4-0.7,5.2
		c4.9,2.4,12.3,2.9,15.8,3c3.6-30.9,10-46.9,15.1-54.5c0.2-0.2,0.3-0.5,0.5-0.7v7.1c1.1-0.5,2.2-1,2.6-1.4
		C85.1,94.1,85.2,94.1,85.2,94.1z"/>
	<polyline points="139,160.7 136.7,135.6 82.3,135.6 79.9,160.7 104.5,163 105.8,149.7 113.1,149.7 	"/>
	<path d="M109.5,41c-8.9,0-16.5-2.9-18.9-5.6c-1.4,0.7-2.6,1.4-3.6,2c0,0.1,0,0.1,0,0.2c0,12.4,10.1,22.5,22.5,22.5
		S132,50.1,132,37.6c0-0.1,0-0.1,0-0.2c-1-0.6-2.2-1.3-3.6-2C125.9,38.1,118.4,41,109.5,41z"/>
	<path d="M104.7,133V86l3.3-4.5L96.7,65.6c0,0-0.1,0-0.1,0c-0.3,0-0.8,0-1.5,0c-3.1,0-9.1,0.5-15,3.4c4.5,6.8,7.2,11.8,7.2,21.3
		c0,1.3,0,2.6-0.1,4c-0.1,0.9-0.6,1.2-1.1,1.6c-0.5,0.3-1.1,0.6-1.7,0.9c-1.2,0.6-2.5,1.2-3.1,1.6c-0.1,0.1-0.1,0.1-0.2,0.1
		c-0.4,4.4-0.6,9.1-0.6,13.6c0,9.4,0.7,17.8,1,20.9H104.7z M88.6,129.1h-3v-8h3V129.1z M95.6,129.1h-3v-8h3V129.1z"/>
	<path d="M136.3,97.7c-1-0.5-2.2-1-3.2-1.6c-0.6-0.4-1.3-0.8-1.4-1.8c-0.1-1.4-0.1-2.8-0.1-4c0-9.5,2.7-14.5,7.2-21.3
		c-5.8-3-11.9-3.4-15-3.4c-0.7,0-1.2,0-1.6,0l-15.5,21.1V133h30.6c0.3-3.1,1-11.5,1-20.9c0-4.4-0.2-9.1-0.6-13.5
		c0,0-0.1-0.1-0.2-0.2C137.3,98.2,136.8,98,136.3,97.7z M109.2,130.4V88.1h3.5v42.2H109.2z M126.3,129.1h-3v-8h3V129.1z
		 M133.3,129.1h-3v-8h3V129.1z"/>
	<path d="M88.1,64.2l1.7-0.6c1.7-0.6,2.6-2.4,2.1-4.1c-0.6-1.7-2.4-2.6-4.1-2.1l-7.8,2.6c-1.7,0.6-2.6,2.4-2.1,4.1
		c0.5,1.4,1.8,2.2,3.2,2.2c0.3,0,0.6,0,0.9-0.1L88.1,64.2z"/>
	<path d="M138,66.4c1.4,0,2.7-0.8,3.2-2.2c0.6-1.7-0.4-3.5-2.1-4.1l-7.8-2.6c-1.7-0.6-3.5,0.4-4.1,2.1c-0.6,1.7,0.4,3.5,2.1,4.1
		l1.7,0.6l6.2,2C137.3,66.4,137.7,66.4,138,66.4z"/>
	<path d="M98.5,30.1c5.1,0,11,0,11,0s5.9,0,11,0c3.8,0,10.6,3.8,13.9,5.8c1.2,0.7,2,1.2,2,1.2s2.6-4.6-2.9-21.5
		c-5.5-16.9-24-15.5-24-15.5S91-1.3,85.5,15.6c-5.5,16.9-2.9,21.5-2.9,21.5s0.8-0.5,2-1.2C87.9,33.9,94.7,30.1,98.5,30.1z M97.8,9.3
		c0.5,0,23.3,0.1,23.3,0.1v0c6.3,0,11.6,4.2,11.7,9.7c0,5.5-5.4,9.7-11.7,9.7c-6,0-11.1-3.8-11.6-8.9c0,0-0.1,0-0.1,0
		c-0.6,5.1-5.6,8.8-11.6,8.8c-6.3,0-11.6-4.2-11.7-9.7C86.2,13.5,91.5,9.3,97.8,9.3z"/>
	<path d="M88.1,19c0,2.1,1,4,2.8,5.4c1.7,1.4,4.2,2.3,6.9,2.3c2.7,0,5.2-0.9,6.9-2.3c1.7-1.4,2.8-3.3,2.8-5.4c0-0.4,0.2-0.7,0.4-0.8
		c0.2-0.1,0.3-0.2,0.3-0.2c0.2-0.1,0.3-0.1,0.4-0.1c0.2,0,0.4,0,0.7,0c0.3,0,0.6,0,0.9,0c0.3,0.1,0.5,0,0.9,0.3
		c0.1,0.1,0.4,0.4,0.5,0.9c0,2.1,1,4,2.8,5.4c1.7,1.4,4.2,2.3,6.9,2.3c2.7,0,5.2-0.9,6.9-2.3c1.7-1.4,2.8-3.3,2.8-5.4
		c0-2.1-1-4-2.8-5.4c-1.7-1.4-4.2-2.3-6.9-2.3h0c0,0-22.9-0.1-23.3-0.1c-2.7,0-5.2,0.9-6.9,2.3C89.2,15.1,88.1,17,88.1,19z"/>
</g>
<path d="M80.2,214.8l9.4,0.3l-0.1,2.7l-9.4-0.3l-0.1,3.8l9.4,0.3l-0.1,2.7l-9.3-0.3l-0.1,3.8l9.3,0.3l-0.1,2.7l-9.3-0.3l-0.1,3.8
	l9.3,0.3l-0.1,2.7l-9.2-0.3l-0.1,2.7c-0.1,6.8,5.3,12.5,12.1,12.6c6.8,0.1,12.5-5.3,12.6-12.1l1.1-53.7l-24.7-0.5L80.2,214.8z"/>
<polygon points="78.7,181.8 103.4,181.3 103.2,167.2 78.4,167.6 "/>
<path d="M75.6,183.3l0-16.3c0-2.2-1.8-4-4-4l-2.5,0c-2.2,0-4,1.8-4,4l0,16.2c0,2.2,1.8,4,4,4l2.5,0
	C73.8,187.3,75.6,185.5,75.6,183.3z"/>
<path d="M113.8,234.3c0,6.8,5.5,12.4,12.3,12.4c6.8,0,12.4-5.5,12.4-12.3l0-2.7l-9.2,0.1l0-2.7l9.3-0.1l0-3.8l-9.3,0.1l0-2.7
	l9.3-0.1l0-3.8l-9.3,0.1l0-2.7l9.4-0.1l0-3.8l-9.4,0.1l0-2.7l9.4-0.1l0.1-29.1l-24.7,0L113.8,234.3z"/>
<polygon points="113.9,175.1 138.6,175.1 138.7,160.9 113.9,160.9 "/>
<polyline points="108.4,143.8 109.7,157.2 134.3,154.8 "/>
<path d="M152,160.1c0-2.2-1.9-4-4.1-3.9l-2.5,0c-2.2,0-4,1.9-3.9,4.1l0.2,16.2c0,2.2,1.9,4,4.1,3.9l2.5,0c2.2,0,4-1.9,3.9-4.1
	L152,160.1z"/>
</svg>
