<?xml version="1.0" encoding="utf-8"?>
<!-- Generator: Adobe Illustrator 27.0.0, SVG Export Plug-In . SVG Version: 6.00 Build 0)  -->
<svg version="1.1" id="Layer_1" xmlns="http://www.w3.org/2000/svg" xmlns:xlink="http://www.w3.org/1999/xlink" x="0px" y="0px"
	 viewBox="0 0 398 445.2" style="enable-background:new 0 0 398 445.2;" xml:space="preserve">
<path d="M381,146.7H17c-9.4,0-17,7.9-17,17.6v104.3c0,9.7,7.6,17.6,17,17.6h178.8v39.4c0,1.4,1.1,2.5,2.5,2.5c0.6,0,1.3-0.3,1.7-0.7
	l40.4-41.2H381c9.4,0,17-7.9,17-17.6V164.3C398,154.6,390.4,146.7,381,146.7z M393.1,268.6c0,6.9-5.4,12.5-12.1,12.6H239.4
	c-0.6,0-1.3,0.3-1.7,0.7l-37,37.7v-35.9c0-1.4-1.1-2.5-2.5-2.5H17c-6.7,0-12.1-5.6-12.1-12.6V164.3c0-6.9,5.4-12.5,12.1-12.6H381
	c6.7,0,12.1,5.6,12.1,12.6V268.6z"/>
</svg>
